<svg version="1.1" preserveAspectRatio="none" xmlns="http://www.w3.org/2000/svg" width="500" height="500" viewBox="0 0 500 500"><rect width="100%" height="100%" fill="#FFFFFF" fill-opacity="1"/><svg viewBox="84.9306 170.0003 514.5012 120" width="333" height="77.66745733537647" x="83.5px" y="211.1663px" xmlns="http://www.w3.org/2000/svg" xmlns:xlink="http://www.w3.org/1999/xlink" preserveAspectRatio="none"><defs></defs><style>.companyName {fill:#182145;fill-opacity:1;}.icon1 {fill:#182145;fill-opacity:1;}.icon2 {fill:#E35B34;fill-opacity:1;}.icon3 {fill:#E3D454;fill-opacity:1;}.icon3-str {stroke:#E3D454;stroke-opacity:1;}</style><g opacity="1" transform="rotate(0 84.9306 170.0003)">
<svg width="103.8573" height="120" x="84.9306" y="170.0003" version="1.1" preserveAspectRatio="none" viewBox="11.904987335205078 6.5 76.19001770019531 88.03240966796875">
  <g transform="matrix(1 0 0 1 0 0)" class="icon1"><polygon points="76.5646667,21.8386002 65.037529,28.4960899 76.5657806,35.152462 76.5657806,48.4797363 88.0950089,41.8233643   88.0950089,28.4960899 "></polygon><polygon points="11.9049873,28.4960899 23.4332409,35.1535797 23.4332409,48.4819717 34.9626122,41.824482 34.9626122,28.4960899   23.4319839,21.8408337 "></polygon><polygon points="38.4701424,13.156373 49.9995117,19.8138638 49.9995117,33.1411362 61.5277634,26.4847641 61.5277634,13.156373   49.998394,6.5 "></polygon><polygon points="38.4701424,43.9028511 49.9995117,50.5603409 49.9995117,63.8876152 61.5277634,57.2301254 61.5277634,43.9028511   49.998394,37.246479 "></polygon><polygon points="38.4701424,74.5487595 49.9995117,81.2051392 49.9995117,94.5324097 61.5277634,87.8760376 61.5277634,74.5487595   49.998394,67.8912735 "></polygon><polygon points="65.037529,59.2090454 76.5657806,65.866539 76.5657806,79.192688 88.0950089,72.535202 88.0950089,59.2090454   76.5646667,52.5515556 "></polygon><polygon points="11.9049873,59.2090454 23.4332409,65.866539 23.4332409,79.1938095 34.9626122,72.5363159 34.9626122,59.2090454   23.4319839,52.5526733 "></polygon></g>
</svg>
</g><g opacity="1" transform="rotate(0 218.7879 170.0003)">
<svg width="380.6439" height="120" x="218.7879" y="170.0003" version="1.1" preserveAspectRatio="none" viewBox="1.56 -28 217.2 68.48">
  <g transform="matrix(1 0 0 1 0 0)" class="companyName"><path id="id-D6z1nYkh13" d="M33.12 0L27.04 0L27.00-16.80L18.76-2.96L15.84-2.96L7.64-16.44L7.64 0L1.56 0L1.56-28L6.92-28L17.40-10.60L27.72-28L33.04-28L33.12 0Z M46.20-5.20L61.44-5.20L61.44 0L39.76 0L39.76-28L60.92-28L60.92-22.80L46.20-22.80L46.20-16.72L59.20-16.72L59.20-11.68L46.20-11.68L46.20-5.20Z M72.40 0L72.40-22.72L63.44-22.72L63.44-28L87.84-28L87.84-22.72L78.88-22.72L78.88 0L72.40 0Z M110.84 0L108.36-6L95.36-6L92.88 0L86.24 0L98.72-28L105.12-28L117.64 0L110.84 0ZM97.44-10.92L106.32-10.92L101.88-21.64L97.44-10.92Z M132.28-16.60Q135.96-16 137.92-13.86Q139.88-11.72 139.88-8.56L139.88-8.56Q139.88-6.12 138.60-4.06Q137.32-2 134.70-0.76Q132.08 0.48 128.28 0.48L128.28 0.48Q125.32 0.48 122.46-0.30Q119.60-1.08 117.60-2.52L117.60-2.52L120.12-7.48Q121.72-6.28 123.82-5.62Q125.92-4.96 128.12-4.96L128.12-4.96Q130.56-4.96 131.96-5.90Q133.36-6.84 133.36-8.56L133.36-8.56Q133.36-12 128.12-12L128.12-12L125.16-12L125.16-16.28L130.92-22.80L119.00-22.80L119.00-28L138.60-28L138.60-23.80L132.28-16.60Z M144.64 0L144.64-28L157.36-28Q161.92-28 165.42-26.26Q168.92-24.52 170.86-21.36Q172.80-18.20 172.80-14L172.80-14Q172.80-9.80 170.86-6.64Q168.92-3.48 165.42-1.74Q161.92 0 157.36 0L157.36 0L144.64 0ZM151.12-5.32L157.04-5.32Q161.24-5.32 163.74-7.66Q166.24-10 166.24-14L166.24-14Q166.24-18 163.74-20.34Q161.24-22.68 157.04-22.68L157.04-22.68L151.12-22.68L151.12-5.32Z M16.72 40.48Q12.44 40.48 8.98 38.62Q5.52 36.76 3.54 33.46Q1.56 30.16 1.56 26L1.56 26Q1.56 21.84 3.54 18.54Q5.52 15.24 8.98 13.38Q12.44 11.52 16.76 11.52L16.76 11.52Q20.40 11.52 23.34 12.80Q26.28 14.08 28.28 16.48L28.28 16.48L24.12 20.32Q21.28 17.04 17.08 17.04L17.08 17.04Q14.48 17.04 12.44 18.18Q10.40 19.32 9.26 21.36Q8.12 23.40 8.12 26L8.12 26Q8.12 28.60 9.26 30.64Q10.40 32.68 12.44 33.82Q14.48 34.96 17.08 34.96L17.08 34.96Q21.28 34.96 24.12 31.64L24.12 31.64L28.28 35.48Q26.28 37.92 23.32 39.20Q20.36 40.48 16.72 40.48L16.72 40.48Z M45.60 40.48Q41.24 40.48 37.74 38.60Q34.24 36.72 32.26 33.42Q30.28 30.12 30.28 26L30.28 26Q30.28 21.88 32.26 18.58Q34.24 15.28 37.74 13.40Q41.24 11.52 45.60 11.52L45.60 11.52Q49.96 11.52 53.44 13.40Q56.92 15.28 58.92 18.58Q60.92 21.88 60.92 26L60.92 26Q60.92 30.12 58.92 33.42Q56.92 36.72 53.44 38.60Q49.96 40.48 45.60 40.48L45.60 40.48ZM45.60 34.96Q48.08 34.96 50.08 33.82Q52.08 32.68 53.22 30.64Q54.36 28.60 54.36 26L54.36 26Q54.36 23.40 53.22 21.36Q52.08 19.32 50.08 18.18Q48.08 17.04 45.60 17.04L45.60 17.04Q43.12 17.04 41.12 18.18Q39.12 19.32 37.98 21.36Q36.84 23.40 36.84 26L36.84 26Q36.84 28.60 37.98 30.64Q39.12 32.68 41.12 33.82Q43.12 34.96 45.60 34.96L45.60 34.96Z M97.36 40L91.28 40L91.24 23.20L83 37.04L80.08 37.04L71.88 23.56L71.88 40L65.80 40L65.80 12L71.16 12L81.64 29.40L91.96 12L97.28 12L97.36 40Z M116.12 12Q119.84 12 122.58 13.24Q125.32 14.48 126.80 16.76Q128.28 19.04 128.28 22.16L128.28 22.16Q128.28 25.24 126.80 27.54Q125.32 29.84 122.58 31.06Q119.84 32.28 116.12 32.28L116.12 32.28L110.48 32.28L110.48 40L104 40L104 12L116.12 12ZM115.76 27Q118.68 27 120.20 25.74Q121.72 24.48 121.72 22.16L121.72 22.16Q121.72 19.80 120.20 18.54Q118.68 17.28 115.76 17.28L115.76 17.28L110.48 17.28L110.48 27L115.76 27Z M152.40 40L149.92 34L136.92 34L134.44 40L127.80 40L140.28 12L146.68 12L159.20 40L152.40 40ZM139 29.08L147.88 29.08L143.44 18.36L139 29.08Z M181.40 12L187.80 12L187.80 40L182.48 40L168.52 23L168.52 40L162.12 40L162.12 12L167.48 12L181.40 29L181.40 12Z M218.76 12L207.88 30.08L207.88 40L201.40 40L201.40 30L190.56 12L197.44 12L204.92 24.44L212.40 12L218.76 12Z"/></g>
</svg>
</g></svg></svg>