<svg version="1.1" id="Layer_1" xmlns="http://www.w3.org/2000/svg" xmlns:xlink="http://www.w3.org/1999/xlink" x="0px" y="0px"
	 width="100%" viewBox="0 0 110 110" enable-background="new 0 0 110 110" xml:space="preserve">
<path fill="#202020" opacity="1.000000" stroke="none" 
	d="
M58.000000,111.000000 
	C38.666668,111.000000 19.833334,111.000000 1.000000,111.000000 
	C1.000000,74.333336 1.000000,37.666668 1.000000,1.000000 
	C37.666668,1.000000 74.333336,1.000000 111.000000,1.000000 
	C111.000000,37.666668 111.000000,74.333336 111.000000,111.000000 
	C93.500000,111.000000 76.000000,111.000000 58.000000,111.000000 
M71.722122,65.629036 
	C71.150612,65.747810 70.579094,65.866585 69.600441,66.335083 
	C69.500259,66.842346 69.400085,67.349609 68.512093,68.051636 
	C66.199165,68.701370 63.892647,69.885750 61.572273,69.913551 
	C47.119904,70.086708 32.663914,69.944359 18.210651,70.075157 
	C16.473217,70.090881 14.744971,71.122208 12.250525,71.902283 
	C12.031435,72.205467 11.812346,72.508652 11.593258,72.811844 
	C12.059545,72.886513 12.525794,73.026199 12.992124,73.026459 
	C30.401217,73.036308 47.810360,73.044670 65.219254,72.984329 
	C65.823631,72.982231 66.425568,72.277306 67.341209,71.356537 
	C68.552467,70.624794 69.763718,69.893051 71.512939,69.258942 
	C71.996742,69.505249 72.480545,69.751556 72.886406,70.760757 
	C73.925598,70.836624 74.964798,70.912491 75.809189,70.406158 
	C77.754265,69.932373 79.699348,69.458588 81.907333,69.663399 
	C82.288284,73.912926 84.697365,70.035477 86.705971,70.733383 
	C89.607475,70.323944 92.859749,70.509842 93.696991,66.644989 
	C91.136620,66.764412 88.567642,66.884232 85.574295,66.690567 
	C84.889236,66.546051 84.204185,66.401535 82.725815,65.915382 
	C79.816200,65.950081 76.906593,65.984779 73.349403,66.180786 
	C72.910278,66.138672 72.471153,66.096558 71.722122,65.629036 
M88.999176,46.016136 
	C88.999809,48.958046 89.000443,51.899956 88.264999,55.237694 
	C88.717484,56.154579 89.031044,57.732468 89.648941,57.862335 
	C91.386391,58.227497 93.442177,58.488403 95.012146,57.872311 
	C96.850136,57.151043 99.561287,55.572346 99.685722,54.169720 
	C100.004326,50.578495 99.113205,46.876766 98.624893,43.230064 
	C98.607353,43.099064 97.735023,43.024929 97.260529,43.022266 
	C94.623039,43.007450 91.983673,42.988529 89.352180,43.117939 
	C89.202431,43.125301 89.116577,44.431946 88.999176,46.016136 
M26.527903,53.165623 
	C27.223417,54.308289 27.752573,55.612251 28.660648,56.548820 
	C29.592232,57.509636 30.963224,58.829979 32.020733,58.728626 
	C34.673805,58.474365 37.258411,57.505730 39.870476,56.823597 
	C39.731293,56.327854 39.592113,55.832115 39.452930,55.336372 
	C38.666595,55.215286 37.872723,55.129997 37.095329,54.966423 
	C34.724289,54.467537 32.359596,53.938484 29.992434,53.421173 
	C31.076244,49.229507 34.521751,52.393265 36.544369,51.288258 
	C37.788029,50.608814 39.691757,49.473812 39.698017,48.532711 
	C39.711891,46.447281 39.289494,43.144833 38.004204,42.536045 
	C35.819126,41.501064 32.787804,41.868366 30.203608,42.256203 
	C29.218519,42.404053 28.625076,44.417870 27.572691,45.207520 
	C27.118071,45.548649 25.952574,44.942383 24.746506,44.047974 
	C20.232204,43.549686 15.717903,43.051403 11.205881,42.553368 
	C11.205881,47.797791 11.205881,52.343929 11.205881,56.890064 
	C11.544585,56.889687 11.883288,56.889309 12.221992,56.888931 
	C12.221992,53.019135 12.221992,49.149338 12.221992,45.003647 
	C14.179033,45.101578 15.595268,45.172443 17.622087,45.273865 
	C17.622087,49.566746 17.622087,53.515202 17.622087,57.463657 
	C18.009283,57.460121 18.396477,57.456585 18.783672,57.453049 
	C18.783672,53.438599 18.783672,49.424149 18.783672,45.318920 
	C20.699312,45.318920 22.066257,45.318920 23.999594,45.318920 
	C23.999594,49.470451 23.999594,53.341457 23.999594,57.212463 
	C24.250097,57.225491 24.500601,57.238518 24.751102,57.251545 
	C25.165388,56.163490 25.579674,55.075436 26.527903,53.165623 
M54.937374,52.662750 
	C54.978298,53.107658 55.019222,53.552570 54.956913,54.768436 
	C57.332970,63.215961 62.929703,56.311096 67.189766,57.989693 
	C67.189766,53.799213 67.132225,50.324753 67.205574,46.853062 
	C67.282578,43.208221 65.571709,41.883698 61.980671,42.000961 
	C56.046349,42.194744 50.100872,42.029011 44.160667,42.080643 
	C43.300236,42.088120 42.442982,42.460876 41.584255,42.664604 
	C50.043159,45.428032 44.763779,53.082439 48.158009,57.707409 
	C48.158009,53.592365 48.158009,49.477318 48.158009,44.738869 
	C54.246529,44.738869 59.542717,44.738869 64.838905,44.738869 
	C64.987106,45.527767 65.135307,46.316662 65.283516,47.105560 
	C63.583755,47.614674 61.913761,48.313190 60.176891,48.586159 
	C57.875286,48.947891 54.746342,47.801037 54.937374,52.662750 
M77.658272,45.087391 
	C79.608635,45.087391 81.559006,45.087391 83.999809,45.087391 
	C83.483253,51.655556 76.845566,46.466682 75.317490,49.866848 
	C77.457161,52.963020 83.744766,47.963226 83.947632,55.280064 
	C80.712799,55.280064 77.981110,55.280064 75.146225,55.280064 
	C76.129570,59.418259 76.395981,59.486523 83.023888,57.814632 
	C85.665527,57.148285 87.830605,50.286499 85.724487,45.347610 
	C83.534164,40.211281 78.742371,44.073318 75.228745,42.988647 
	C75.124680,43.385620 75.020615,43.782593 74.916542,44.179562 
	C75.528923,44.478394 76.141304,44.777222 77.658272,45.087391 
M60.359779,65.906700 
	C44.075043,65.906700 27.790302,65.906700 11.505564,65.906700 
	C11.507199,66.183777 11.508834,66.460854 11.510468,66.737930 
	C29.858095,66.737930 48.205719,66.737930 66.553345,66.737930 
	C66.556328,66.460869 66.559319,66.183807 66.562302,65.906746 
	C64.812531,65.906746 63.062759,65.906746 60.359779,65.906700 
z"/>
<path fill="#CCCCCC" opacity="1.000000" stroke="none" 
	d="
M55.070934,52.002972 
	C54.746342,47.801037 57.875286,48.947891 60.176891,48.586159 
	C61.913761,48.313190 63.583755,47.614674 65.283516,47.105560 
	C65.135307,46.316662 64.987106,45.527767 64.838905,44.738869 
	C59.542717,44.738869 54.246529,44.738869 48.158009,44.738869 
	C48.158009,49.477318 48.158009,53.592365 48.158009,57.707409 
	C44.763779,53.082439 50.043159,45.428032 41.584255,42.664604 
	C42.442982,42.460876 43.300236,42.088120 44.160667,42.080643 
	C50.100872,42.029011 56.046349,42.194744 61.980671,42.000961 
	C65.571709,41.883698 67.282578,43.208221 67.205574,46.853062 
	C67.132225,50.324753 67.189766,53.799213 67.189766,57.989693 
	C62.929703,56.311096 57.332970,63.215961 55.340675,54.392349 
	C56.540741,53.846413 57.357048,53.676571 58.173351,53.506725 
	C58.167877,53.233315 58.162407,52.959904 58.156933,52.686493 
	C57.128265,52.458652 56.099602,52.230812 55.070934,52.002972 
z"/>
<path fill="#CFCFCF" opacity="1.000000" stroke="none" 
	d="
M25.110001,44.766483 
	C25.952574,44.942383 27.118071,45.548649 27.572691,45.207520 
	C28.625076,44.417870 29.218519,42.404053 30.203608,42.256203 
	C32.787804,41.868366 35.819126,41.501064 38.004204,42.536045 
	C39.289494,43.144833 39.711891,46.447281 39.698017,48.532711 
	C39.691757,49.473812 37.788029,50.608814 36.544369,51.288258 
	C34.521751,52.393265 31.076244,49.229507 29.992434,53.421173 
	C32.359596,53.938484 34.724289,54.467537 37.095329,54.966423 
	C37.872723,55.129997 38.666595,55.215286 39.452930,55.336372 
	C39.592113,55.832115 39.731293,56.327854 39.870476,56.823597 
	C37.258411,57.505730 34.673805,58.474365 32.020733,58.728626 
	C30.963224,58.829979 29.592232,57.509636 28.660648,56.548820 
	C27.752573,55.612251 27.223417,54.308289 26.174309,53.150742 
	C25.583813,50.346069 25.346907,47.556278 25.110001,44.766483 
z"/>
<path fill="#F2F2F2" opacity="1.000000" stroke="none" 
	d="
M24.928253,44.407227 
	C25.346907,47.556278 25.583813,50.346069 25.907337,53.561623 
	C25.579674,55.075436 25.165388,56.163490 24.751102,57.251545 
	C24.500601,57.238518 24.250097,57.225491 23.999594,57.212463 
	C23.999594,53.341457 23.999594,49.470451 23.999594,45.318920 
	C22.066257,45.318920 20.699312,45.318920 18.783672,45.318920 
	C18.783672,49.424149 18.783672,53.438599 18.783672,57.453049 
	C18.396477,57.456585 18.009283,57.460121 17.622087,57.463657 
	C17.622087,53.515202 17.622087,49.566746 17.622087,45.273865 
	C15.595268,45.172443 14.179033,45.101578 12.221992,45.003647 
	C12.221992,49.149338 12.221992,53.019135 12.221992,56.888931 
	C11.883288,56.889309 11.544585,56.889687 11.205881,56.890064 
	C11.205881,52.343929 11.205881,47.797791 11.205881,42.553368 
	C15.717903,43.051403 20.232204,43.549686 24.928253,44.407227 
z"/>
<path fill="#171717" opacity="1.000000" stroke="none" 
	d="
M13.012466,71.682808 
	C14.744971,71.122208 16.473217,70.090881 18.210651,70.075157 
	C32.663914,69.944359 47.119904,70.086708 61.572273,69.913551 
	C63.892647,69.885750 66.199165,68.701370 69.124817,68.104149 
	C70.150017,68.491539 70.562492,68.826424 70.974976,69.161301 
	C69.763718,69.893051 68.552467,70.624794 66.714699,71.610397 
	C48.396282,71.803780 30.704374,71.743294 13.012466,71.682808 
z"/>
<path fill="#DCDCDC" opacity="1.000000" stroke="none" 
	d="
M77.205978,45.081722 
	C76.141304,44.777222 75.528923,44.478394 74.916542,44.179562 
	C75.020615,43.782593 75.124680,43.385620 75.228745,42.988647 
	C78.742371,44.073318 83.534164,40.211281 85.724487,45.347610 
	C87.830605,50.286499 85.665527,57.148285 83.023888,57.814632 
	C76.395981,59.486523 76.129570,59.418259 75.146225,55.280064 
	C77.981110,55.280064 80.712799,55.280064 83.947632,55.280064 
	C83.744766,47.963226 77.457161,52.963020 75.317490,49.866848 
	C76.845566,46.466682 83.483253,51.655556 83.999809,45.087391 
	C81.559006,45.087391 79.608635,45.087391 77.205978,45.081722 
z"/>
<path fill="#1E1E1E" opacity="1.000000" stroke="none" 
	d="
M89.001076,54.841866 
	C89.000443,51.899956 88.999809,48.958046 89.450790,45.493896 
	C92.493088,44.971661 95.083763,44.971661 97.663788,44.971661 
	C97.663788,48.588078 97.663788,51.626030 97.663788,54.841866 
	C94.560089,54.841866 91.780579,54.841866 89.001076,54.841866 
z"/>
<path fill="#FDFDFD" opacity="1.000000" stroke="none" 
	d="
M88.633041,55.039780 
	C91.780579,54.841866 94.560089,54.841866 97.663788,54.841866 
	C97.663788,51.626030 97.663788,48.588078 97.663788,44.971661 
	C95.083763,44.971661 92.493088,44.971661 89.451698,45.052773 
	C89.116577,44.431946 89.202431,43.125301 89.352180,43.117939 
	C91.983673,42.988529 94.623039,43.007450 97.260529,43.022266 
	C97.735023,43.024929 98.607353,43.099064 98.624893,43.230064 
	C99.113205,46.876766 100.004326,50.578495 99.685722,54.169720 
	C99.561287,55.572346 96.850136,57.151043 95.012146,57.872311 
	C93.442177,58.488403 91.386391,58.227497 89.648941,57.862335 
	C89.031044,57.732468 88.717484,56.154579 88.633041,55.039780 
z"/>
<path fill="#D1D1D3" opacity="1.000000" stroke="none" 
	d="
M12.631495,71.792542 
	C30.704374,71.743294 48.396282,71.803780 66.558418,71.882111 
	C66.425568,72.277306 65.823631,72.982231 65.219254,72.984329 
	C47.810360,73.044670 30.401217,73.036308 12.992124,73.026459 
	C12.525794,73.026199 12.059545,72.886513 11.593257,72.811844 
	C11.812346,72.508652 12.031435,72.205467 12.631495,71.792542 
z"/>
<path fill="#D1D1D3" opacity="1.000000" stroke="none" 
	d="
M60.836384,65.906723 
	C63.062759,65.906746 64.812531,65.906746 66.562302,65.906746 
	C66.559319,66.183807 66.556328,66.460869 66.553345,66.737930 
	C48.205719,66.737930 29.858095,66.737930 11.510468,66.737930 
	C11.508834,66.460854 11.507199,66.183777 11.505564,65.906700 
	C27.790302,65.906700 44.075043,65.906700 60.836384,65.906723 
z"/>
<path fill="#181818" opacity="1.000000" stroke="none" 
	d="
M81.644424,68.984795 
	C79.699348,69.458588 77.754265,69.932373 75.598190,70.637169 
	C74.860725,70.628082 74.334267,70.387978 73.907516,69.814713 
	C72.895905,68.330803 78.513199,67.160141 73.996979,66.019485 
	C76.906593,65.984779 79.816200,65.950081 82.899361,66.344803 
	C82.814804,67.137527 82.556702,67.500832 82.089706,67.972305 
	C81.739845,68.365677 81.661049,68.667114 81.644424,68.984795 
z"/>
<path fill="#9E9E9E" opacity="1.000000" stroke="none" 
	d="
M85.998665,67.004051 
	C88.567642,66.884232 91.136620,66.764412 93.696991,66.644989 
	C92.859749,70.509842 89.607475,70.323944 86.283829,70.394020 
	C85.817673,69.847488 85.773651,69.640312 85.824875,69.199539 
	C85.947884,68.639008 85.975632,68.312057 86.003723,67.739838 
	C86.004059,67.494568 85.998665,67.004051 85.998665,67.004051 
M88.375572,68.109711 
	C88.101486,68.179489 87.827400,68.249268 87.553314,68.319046 
	C87.813850,68.502167 88.085617,68.840317 88.331589,68.822487 
	C88.554001,68.806366 88.748238,68.401428 88.375572,68.109711 
z"/>
<path fill="#656565" opacity="1.000000" stroke="none" 
	d="
M73.673187,66.100128 
	C78.513199,67.160141 72.895905,68.330803 73.690582,69.811325 
	C73.373947,70.141106 72.964348,69.997864 72.964348,69.997864 
	C72.480545,69.751556 71.996742,69.505249 71.243958,69.210121 
	C70.562492,68.826424 70.150017,68.491539 69.518723,68.006767 
	C69.400085,67.349609 69.500259,66.842346 70.140762,66.181366 
	C71.131401,66.036583 71.581711,66.045517 72.032028,66.054443 
	C72.471153,66.096558 72.910278,66.138672 73.673187,66.100128 
z"/>
<path fill="#9D9D9D" opacity="1.000000" stroke="none" 
	d="
M85.729630,69.433128 
	C85.773651,69.640312 85.817673,69.847488 85.919914,70.366974 
	C84.697365,70.035477 82.288284,73.912926 81.775879,69.324097 
	C81.661049,68.667114 81.739845,68.365677 82.465324,67.984924 
	C83.298698,67.904388 83.547554,67.919411 83.711090,68.251205 
	C84.327049,68.856346 85.028343,69.144737 85.729630,69.433128 
z"/>
<path fill="#D2D2D2" opacity="1.000000" stroke="none" 
	d="
M55.004154,52.332863 
	C56.099602,52.230812 57.128265,52.458652 58.156933,52.686493 
	C58.162407,52.959904 58.167877,53.233315 58.173351,53.506725 
	C57.357048,53.676571 56.540741,53.846413 55.392292,54.006866 
	C55.019222,53.552570 54.978298,53.107658 55.004154,52.332863 
z"/>
<path fill="#B0B0B0" opacity="1.000000" stroke="none" 
	d="
M83.796417,67.934448 
	C83.547554,67.919411 83.298698,67.904388 82.674210,67.876755 
	C82.556702,67.500832 82.814804,67.137527 83.296021,66.515625 
	C84.204185,66.401535 84.889236,66.546051 85.786484,66.847305 
	C85.998665,67.004051 86.004059,67.494568 85.635323,67.701981 
	C84.776527,67.917747 84.286476,67.926094 83.796417,67.934448 
z"/>
<path fill="#B7B7B7" opacity="1.000000" stroke="none" 
	d="
M72.925377,70.379311 
	C72.964348,69.997864 73.373947,70.141106 73.590881,70.144493 
	C74.334267,70.387978 74.860725,70.628082 75.695587,70.928268 
	C74.964798,70.912491 73.925598,70.836624 72.925377,70.379311 
z"/>
<path fill="#181818" opacity="1.000000" stroke="none" 
	d="
M71.877075,65.841743 
	C71.581711,66.045517 71.131401,66.036583 70.344330,66.006508 
	C70.579094,65.866585 71.150612,65.747810 71.877075,65.841743 
z"/>
<path fill="#2E2E2E" opacity="1.000000" stroke="none" 
	d="
M83.711090,68.251205 
	C84.286476,67.926094 84.776527,67.917747 85.634979,67.947250 
	C85.975632,68.312057 85.947884,68.639008 85.824875,69.199539 
	C85.028343,69.144737 84.327049,68.856346 83.711090,68.251205 
z"/>
<path fill="#2E2E2E" opacity="1.000000" stroke="none" 
	d="
M88.665237,68.138824 
	C88.748238,68.401428 88.554001,68.806366 88.331589,68.822487 
	C88.085617,68.840317 87.813850,68.502167 87.553314,68.319046 
	C87.827400,68.249268 88.101486,68.179489 88.665237,68.138824 
z"/>
</svg>